<?xml version="1.0" ?><svg viewBox="0 0 200 200" xmlns="http://www.w3.org/2000/svg"><path d="M76.689,102.584c2.92,2.5,6.622,4.644,10.475,4.919a.184.184,0,0,0,.112-.037c1-1.485,1.79-3.169,2.641-4.744.007-.016.021-.119-.019-.14-1.851-1.043-2.891-3.138-4.269-4.686-.04-.045-6.685-4.23-9.258-8.812C77.732,86.376,88.527,64.631,88.3,57.219c.162.076.546.268.58.265a17.9,17.9,0,0,0,.886-3.06c-2.209-1.36-6.948-4.121-7.075-4.195,1.122-2.085,2.546-8.521,1.716-9.367-.25-.255-.462-.111-.615.122.01-.708-.128-1.326-.69-1.238-.358.055-.459.488-.528.8-.073-1-.791-1.172-1.076-.7a17.653,17.653,0,0,0-.618,3.455c-.326-.61-1.268-1.687-1.66-.949-.247.463.185,1.44.313,1.872a5.176,5.176,0,0,1-.284,4.174,14.412,14.412,0,0,0-2.477-.807A11.11,11.11,0,0,0,75.5,50.449c.18.108.363.215.546.321a243.865,243.865,0,0,1-8.478,23.755,9.967,9.967,0,0,0-6.3-.15c-.064-.237-.11-.4-.108-.4,1.589-.971,3.116-2.239,3.026-4.262a49.61,49.61,0,0,0-1.841-7.666c.729-.412.149-1.065.462-1.472.146-.191.422-.217.629-.345a.821.821,0,0,0,.3-.947,1.149,1.149,0,0,0-.769-.692c-.252-.077-.549-.1-.708-.307-.3-.387.167-.889.289-1.36a1.16,1.16,0,0,0-.642-1.258,1.7,1.7,0,0,0-1.472.061c.653-.465.258-2.036-1.774-1.549-.185-1.158-1.525-1.76-2.7-1.8a4.052,4.052,0,0,0-3.885,2.082.536.536,0,0,1-.366-.027,3.056,3.056,0,0,0-3.392,2.018,1.845,1.845,0,0,1-.5.844c-.6.442-1.6-.139-2.15.365-.584.528.021,1.523-.224,2.268-.227.7-1.089.936-1.622,1.442a1.935,1.935,0,0,0-.173,2.517c.559.7,1.405.827,1.157,2.649a5.514,5.514,0,0,0-.112,1.689,1.336,1.336,0,0,0,1.069,1.165c.486.044.685-.01.655.575-.152,2.89,3.513,5.083,4.842,4.018a1.989,1.989,0,0,1,.462-.356.992.992,0,0,1,.421-.04c.247,1.013.486,2.018.7,3.018a4.543,4.543,0,0,0-2.353,2.684c-1.262.586-8.353,4.158-10.766,11.315L27.463,82.557c.108-.252.22-.5.326-.756v0c.172-.38-3.184-2.622-3.339-2.342a18.552,18.552,0,0,0-1.092,2.548c-1.151-1.117-1.189-3.31-2.691-3.857,1.035-1.476,4.664-7.126,4.666-7.132.807-1.357-.084-3.373-1.166-4.287a3.691,3.691,0,0,0-5.145.395,100.067,100.067,0,0,1-2.289,9.855c-.856-.364-1.138.137-.962.641-.5-.123-1.1.48-.722,1.32-.527.009-.9,1.288.125,2.14a25.989,25.989,0,0,1-4.481,6.98c-.39.414-.809.8-.655,1.4a2.241,2.241,0,0,0,1.349,1.318,2.066,2.066,0,0,0,1.257,2.278c4.28,1.643,5.416-4.419,5.973-8.951A23.037,23.037,0,0,0,22.2,85.326c-3.545,9.159-3.576,5.576-.257,8.451a.107.107,0,0,0,.178-.064q.217-.349.424-.708c1.511,1.212,15.452,12.234,22.05,11.647a8.6,8.6,0,0,0,4.829-2.264l.4-.464s-.607-19.038.873-22.729l-.006,0a4.547,4.547,0,0,1,2.18-2.506c.57,2.732,2.169,31.945,5.691,46.79l.53,1.769s-3.137,6.629-6.054,7.69L46.58,126.8s4.874-17.115,3.238-24.871c0,0-5.405,21.249-14.222,24.5,0,0-3.182,1.194-5.3.862-1.037-.162-.882,2.976.483,6.495-4.418-.247-11.026-.339-13.076-.247.636-1.88-6.975-3.216-6.975-3.216l-.249.615,3.1,2.042c-4.373.7-5.176,1.88-5.176,1.88-3.1,5.03-1.864,5.667-1.864,5.667s5.6-1.6,6.237-2.557a1.41,1.41,0,0,0,.177-.357,36.564,36.564,0,0,0,6.617,4.039c2.583,1.315,5.256,2.444,7.947,3.521,4.94,1.973,10.012,4.28,15.347,4.918,4.7,5.946,12.017,8.463,19.542,8.291.267,6.249,2.044,24.195,2.426,25.593-1.989-.024-.881,7.629-.881,7.629l.664.046.973-3.58c2.033,3.932,3.4,4.33,3.4,4.33,5.747,1.371,5.966,0,5.966,0s-2.959-4.362-4.2-5.052a168.5,168.5,0,0,0,6.818-29.679c3.2.138,7.262-.67,11.991-3.726a14.335,14.335,0,0,0,3.845-10.343c-.066-6.762-10.944-22.143-10.944-22.143S76.39,109.76,76.689,102.584ZM20.559,78.118a2.116,2.116,0,0,0-1.887.4c-.086-.095-.17-.183-.255-.273.182-.092,2.141-6.46,2.589-8.317a3.063,3.063,0,0,0,3.641,1.763C24.035,72.614,21.346,76.677,20.559,78.118Zm2.656-8.176a4.62,4.62,0,0,0-.573,1.393C20.253,70.273,21.25,67.82,23.215,69.942Zm-3.983-2.606a3.48,3.48,0,0,1,5.826,1.124c.62,1.517.1,3.657-2.087,3-.035-.011.405-1.506.384-1.543-.464-.8-2.352-1.642-2.384-.356-1.092,2.746-1.916,5.62-2.8,8.437a5.116,5.116,0,0,0-1.191-.9C17.559,76.272,19.227,67.34,19.232,67.336Zm-.619,11.238a2.173,2.173,0,0,0-.517.716s0-.005-.01-.005a3.135,3.135,0,0,1-2.029-1.748C15.984,76.563,18.106,78.085,18.613,78.574Zm-2.784-.742A4.894,4.894,0,0,0,18,79.524c-.091.262-.167.763-.2.774-.693.215-2.014-.652-2.39-1.2C15.073,78.609,15.153,77.9,15.829,77.832Zm-.687,1.289c.006.01,1.827,1.665,2.711,1.371a1.215,1.215,0,0,1,.119.291c-.008,1.095-1.742.642-2.305.35C14.545,80.552,14.557,79.247,15.142,79.121ZM11.414,90.526c-.687-.464-1.411-.939-.833-1.933a3.8,3.8,0,0,1,.584-.607c.589-.6,3.582-4.98,4.1-6.836a3.672,3.672,0,0,0,1.406.526c-.865,1.427-1.682,2.886-2.58,4.294C13.153,87.45,11.671,88.883,11.414,90.526Zm1.48,2.342c-1.263-.425-1.294-1.435-1.088-2.573.26-1.42.622-.511,5.019-8.595.684.079,1.316-.075,1.375-.766a.9.9,0,0,0,.975.009C17.98,84.361,18.047,94.6,12.894,92.868Zm5.738-8.89a20.329,20.329,0,0,1,.573-3.046l0,0a.814.814,0,0,0,.077-.041c.042-.032.018-.116-.04-.093-1.607.626-1-1.32-.679-1.758a1.819,1.819,0,0,1,3.042.292c.6.973.819,2.1,1.681,2.9-.339.963-.65,1.938-1,2.872C22.276,85.092,19.02,84.166,18.632,83.978Zm3.4,9.622c-.419-.207-1.9-1.244-2.27-1.47l.006-.007c.856-2,4.335-10.322,4.757-12.515.578.419,2.591,1.9,3.018,2.178C27.452,82,22.536,92.385,22.037,93.6Zm5.993,51.432c-2.744-1.082-5.473-2.214-8.114-3.527A77.844,77.844,0,0,1,13,137.387a1.543,1.543,0,0,0-.393-1.2c1.42-3,12.288-2.51,18.316-2.04,1.464,3.576,4.161,7.434,8.121,8.58a20.79,20.79,0,0,0,3.342,6.735C36.766,148.7,35.906,148.136,28.03,145.032ZM79.85,44.853c-.124-.488-.578-1.421-.45-1.92.256-1,1.06.114,1.458.573-.008.072-.018.143-.027.215-.01.111.144.109.178.024a10.874,10.874,0,0,0,.355-2.61c.367-2.609,1.061-.026,1.08-.013a12.729,12.729,0,0,0-.334,1.97c-.006.075.1.08.122.016a15.753,15.753,0,0,0,.554-2.516c.249-1.5,1.2.3.567,2.156-.047.14.2.2.218.061a15.531,15.531,0,0,0,.214-1.557c.546-.821.875.575.043,4.15-.371,1.6-.862,3.14-1.342,4.707a34.314,34.314,0,0,0-3.028-1.617A4.477,4.477,0,0,0,79.85,44.853Zm-4.166,5.553c.2-.448,1.016-2.217,1.218-2.652,1.842.685,10.639,5.633,12.733,6.874-.27.859-.567,1.721-.819,2.585C87.882,56.7,76.1,50.581,76.1,50.581Zm.528,38.906c1.588,3.81,9.316,8.767,9.329,8.761.676.923,1.437,1.774,2.161,2.658a7.862,7.862,0,0,0,2.011,1.917c-.892,1.485-2.5,4.632-2.515,4.63-4.346-.618-7.5-2.941-11.037-5.322h0c-1.231-1.167-4.27-4.7-5.935-12.331,0,0-1.588-13-8.487-13.422-.105-.462-.3-1.18-.432-1.679C74.319,72.285,75.065,86.98,76.212,89.312ZM52.377,73.589c.858-.013,1.015-1.235.631-1.894-.034-.055-.066-.111-.106-.164a.915.915,0,0,0,.642-.132c.069-.048.053-.184-.048-.176a2.158,2.158,0,0,1-.777-.042,4.021,4.021,0,0,1-.384-.143c-2.129-1.87-.069-4.12,1.71-3.116.315.177.785.414.957.095a.57.57,0,0,0,.04-.31c-.136-2.512.049-3.438,2.726-4.943a4.538,4.538,0,0,1,2.7-.806c.634.08,1.167.392,1.769.129.583,1.944,1.045,3.9,1.44,5.9a4.981,4.981,0,0,1-.116,3.561,6.518,6.518,0,0,1-2.525,2.217,21.011,21.011,0,0,0,.569,2.516c-.011.155.115.067.661.192a4.936,4.936,0,0,1-3.627,3.916c-1.8.547-3.215-.09-4.9-.57A30.913,30.913,0,0,0,52.377,73.589ZM53.753,80c1.962.69,3.7,1.13,5.71.318a4.852,4.852,0,0,0,2.981-3.8A7.2,7.2,0,0,1,66.456,80l-3.684,7.272-8.881-5.821C53.854,80.966,53.809,80.483,53.753,80Zm.287,5.06c0-.011-.011-1.018-.03-1.514l9.327,5.815,3.909-7.982c.223.422.435.841.634,1.244-.5,1.174-3.095,7.139-4.288,8.332ZM70.463,187.236a1.443,1.443,0,0,0-1.522.732c-2.035-.352-3.758-3.932-3.758-3.932s-.027,0-.04-.011c-.488-1.721-2.261-19.579-2.615-25.655,6.444-.19,7.277-3.375,7.277-3.375a13.392,13.392,0,0,0,7.495,2.656C75.487,168.218,74.212,175.3,70.463,187.236Z"/><path d="M192.92,51.372c-1.059-.935-7.909-5.267-10-6.932.2-1.12-.041-2.255-1.368-2.141-.165-.612-.565-.933-1.323-.3-.092-1.263-1.274-.944-1.584-.271-1.808-1.571-8.165-8.09-9.592-9.87-.352-.438-.715-1.188-1.267-1.334-.61-.159-1.453.326-1.986.576-5.369,2.525-4.042,8.156-1.024,8.244a33.756,33.756,0,0,1,10.443,4.476c-.148,1.822,1.138,3.166,1.087,3.573a28.368,28.368,0,0,1-1.389,3.221c-1.241-.7-3.843-2.052-3.882-2-2.924,3.975-1.9,4.533-.25,5.574-.686,1.26-5.807,10.626-9.512,16.431-3.978,6.231-12.419,6.452-12.419,6.452s-1.008-.475-1.033-.51a19.61,19.61,0,0,0-2.205-2.455,10.449,10.449,0,0,1-1.4.838c.228-.909.453-1.812.7-2.71a2.605,2.605,0,0,0,1.252.178c.642-.191,4.864-1.549,5.7-2.218a1.888,1.888,0,0,0,.779-1.535,1.408,1.408,0,0,0,1.474-.456c.671-.843-.007-1.681-.007-1.843-.008-.376,1.19-1.017,1.675-2.276a1.933,1.933,0,0,0-.463-2.214,2.2,2.2,0,0,0,.177-3.49c1-.772,1.157-2.823-1.434-4.269.042-.313.344-.514.5-.785a1.294,1.294,0,0,0-.441-1.591,3.762,3.762,0,0,0-1.681-.6c.613-.539.579-1.824-1.323-2.606.715-.155.805-1.873-1.252-1.623-.39.049-1.618.329-1.9-.04-.207-.26.028-1.688-.912-1.862-.708-.13-1.225.8-1.944.812-.8.018-1.238-1.061-2.031-1.191-.9-.149-1.811.984-2.577.493-.3-.2-.349-.472-1.056-.414a4.087,4.087,0,0,0-3.326,2.35,2.177,2.177,0,0,0-3.144,1.867c-1.79-.622-2.941.44-2.756,1.445-.255-.655-1.326-.53-1.7.064a3.356,3.356,0,0,0-.061,2.209c-.966.24-1.583,1.736-.027,3.293a1.4,1.4,0,0,0-.942,2.321c-1.119-.724-2.347,1.575.457,3.474a1.292,1.292,0,0,0,.305,2.309c.113.037,1.117.183.864.711a.733.733,0,0,1-.307.263,1.452,1.452,0,0,0,1.127,2.628c-.371.612.386,1.633,1.723.991a1.822,1.822,0,0,0,2.3,2.194c.2-.064.617-.194.747-.412a8,8,0,0,0,2.583,1.133c-.348,1.058-.518,2.058-.878,3.1-.787-.78-1.463-1.48-1.493-1.451a7.231,7.231,0,0,0-.726.827,4.241,4.241,0,0,0-4.241.891c-1.927-2.161-13.84-19.427-15.221-21.427a3.814,3.814,0,0,1,.482-.262.292.292,0,0,0,.09-.231,20.2,20.2,0,0,0-1.585-2.832,12.523,12.523,0,0,0-2.5,1.095,5.287,5.287,0,0,1-.145-3.925c.156-.469.8-1.541.62-2.066-.313-.944-1.838.342-2.259.722a9.768,9.768,0,0,1-.769-1.592c-.157-.45-.223-.936-.422-1.371-.159-.35-.5-.994-.976-.882-.923.217-.782,1.575-.536,2.487a6.15,6.15,0,0,0-.766-1.279c-.26-.3-.782-.761-1.18-.448s-.244,1.085-.185,1.5c.066.48.132.973.225,1.456-.366-.565-.876-1.135-1.419-1.138-.655,0-.684.626-.62,1.133a8.637,8.637,0,0,0,1.317,3.11,37.59,37.59,0,0,0,3.212,4.927l.008,0c-2.013,1.474-5.808,4.943-5.8,4.977A22.164,22.164,0,0,0,103.4,62.4a.253.253,0,0,0,.214.04c.2-.175.406-.348.61-.518,1.116,1.944,13.742,23.873,15.948,25.034-1.617,1.856-4.338,2.967-6.547,3.67a8.521,8.521,0,0,1-5.246.247,5.98,5.98,0,0,1-3.845-4.7c0-.024-.082-.154-.127-.16a50.941,50.941,0,0,0-5.956.292c-.018.018,1,8.38,1.578,9.96.023.067,3.578,5.471,12.978,3.737,4.766-.878,7.659-4.747,10.406-8.438.453,1.174,3.01,8.732-.067,22.816-3.36,15.381-12.729,18.476-12.729,18.476a12.253,12.253,0,0,0,2.454,8.633c-3.3,6.55-.764,14.6,2.434,20.672,3.567,6.776,7.871,13.944,13.877,18.834a13.672,13.672,0,0,0,2.729-1.859,21.336,21.336,0,0,0,1.88,2.06c-.242,5.158-2.485,6.7-1.215,7.03.762.2,5.939-5.14,6.609-5.9.976-1.111,1.628-1.387.711-2.572-.467-.6-3-3.758-3.424-4.561.294-.265,1-.833,1-.894.067-.082-5.184-16.76-6.51-19.83,1.538-1.175,6.564-6.232,6.792-7.765,4.163,12.652,12.564,23.986,22.27,32.833,1.154,1.052,10.488,9,10.947,8.547.853-.836,1.652-1.714,2.41-2.618a20.674,20.674,0,0,0,1.939,2.22c0,.011-.613,6.7-.618,6.73-.05.263-.027.395.249.536.494.249.886-.379,1.148-.682a55.991,55.991,0,0,0,4.585-5.895c1.723-2.627,1.771-1.28-4.044-7.26.56-.822.683-.9.51-1.157-2.767-3.767-11.684-18.617-14.914-24.858,3.62,1.879,8.026,3.338,10.652,1.23,5.039-4.044,6.7-19.226,6.7-19.226-21.3-13.264-23.555-42.68-12.2-53.567,7.437-7.131,15.33-20.3,16.438-22.18,1.276.644,1.9-1.907,2.13-2.729a75.914,75.914,0,0,0-6.821-5.351A33.157,33.157,0,0,0,181.4,49.4c7.819,8.122,6.5,7.588,8.409,7.433a4.211,4.211,0,0,0,3.659-2.159A3.1,3.1,0,0,0,192.92,51.372Zm-89.193-3.413a6.958,6.958,0,0,1-.782-1.979c-.209-1.145.578-1.09,1.316-.414a7.72,7.72,0,0,1,.869,1.157.077.077,0,0,0,.133-.077c-.035-.074-1.13-3.882.244-3.421.458.154.727.827.963,1.225a23.263,23.263,0,0,1,1.163,2.347c.046.1.2.013.152-.087a28.174,28.174,0,0,1-1.053-3.236c-.018-.681.424-1.479,1.159-.652a6.034,6.034,0,0,1,.671,1.747,8.254,8.254,0,0,0,.814,1.6c.05.074,1.267-.976,1.639-.936.851.09.061,1.35-.088,1.761a5.585,5.585,0,0,0,.014,4.431,42.007,42.007,0,0,0-3.533,2.424v-.011C106.319,51.8,104.825,50,103.727,47.959ZM103.576,62.3a28.954,28.954,0,0,0-1.906-3.4c1.946-1.583,11.074-8.224,11.93-8.452.009,0,1.188,2.143,1.422,2.615C114.871,53.132,104.114,61.586,103.576,62.3ZM148.43,78.754c4.441,3.912,5.834,16.84,7.425,24a46.329,46.329,0,0,0,4.773,12.463l-1.726,7.426-6.1-3.779c-1.459-3.647-2.122-10.077-2.122-10.077s0-6.5-.132-15.05a30.781,30.781,0,0,0-4.644-15.152,12.314,12.314,0,0,0,1.1-1.111Zm-2.758-4.447a19.647,19.647,0,0,0,1.819,2.273s-3.572,3.564-5.757,3.925a29.1,29.1,0,0,0-.835-3.691A32.007,32.007,0,0,0,145.672,74.307Zm-9.847,45.257a18.648,18.648,0,0,0,2.416.005c.9,4.071,1.379,3.318.2-.026a11.351,11.351,0,0,0,2.331-.583,9.166,9.166,0,0,0,.742,2.587,11.929,11.929,0,0,1-5.4,1.032A8.3,8.3,0,0,0,135.825,119.564Zm-3.974-1.235a10.222,10.222,0,0,0,1.625.694,18.448,18.448,0,0,0-.483,2.893,11.042,11.042,0,0,1-1.753-.878A27.171,27.171,0,0,0,131.851,118.329Zm-.743,2.625c-.337-.213-.674-.441-1.008-.69q.359-1.317.674-2.647a6.78,6.78,0,0,0,.936.632A9.547,9.547,0,0,0,131.108,120.954Zm2.562-1.87a13.006,13.006,0,0,0,1.964.454,25.1,25.1,0,0,0,.3,3.033,9.533,9.533,0,0,1-2.737-.575A13.035,13.035,0,0,0,133.67,119.084Zm7.3-.2c.3-.116.591-.246.878-.387q.147,1.428.342,2.793c-.165.063-.327.127-.488.188A9.375,9.375,0,0,0,140.973,118.882Zm.843-.684a10.131,10.131,0,0,1-10.981-.835c2.635-11.318,2.885-23.029,2.635-30.846a49.484,49.484,0,0,0,3.838,4.985,18.889,18.889,0,0,0,4.932-2.522A180.814,180.814,0,0,0,141.816,118.2Zm-4.524-26.983c-.6-.742-1.167-1.5-1.716-2.275a22.123,22.123,0,0,1,1.825-1.676l.62.86A14.967,14.967,0,0,0,137.292,91.215Zm.96-2.967,1.122-.6c.4.656,1.169,2.019,1.183,2.024-.194.122-2.212,1.233-3.05,1.636A20.829,20.829,0,0,0,138.252,88.248Zm-2.8.515c-.488-.693-.965-1.39-1.448-2.088a16.193,16.193,0,0,1,1.947-1.4c.026.032,1.251,1.713,1.251,1.713A7.079,7.079,0,0,0,135.454,88.763ZM133.9,86.522c-.149-.215-.3-.433-.452-.647-.028-.809-.063-1.57-.1-2.284a11.472,11.472,0,0,0,.973-.723c.09.145,1.011,1.646,1.454,2.2A4.1,4.1,0,0,0,133.9,86.522Zm-.573-3.318c-.046-.822-.1-1.567-.143-2.233.315.563.652,1.117.991,1.666A3.066,3.066,0,0,0,133.325,83.2Zm7.367,6.386a6.859,6.859,0,0,0-1.165-2.018s1.753-.851,2.257-1.146a7.084,7.084,0,0,1,.653.942c-.053.392-.107.808-.157,1.243C141.736,88.909,141.214,89.253,140.692,89.59Zm1.3-3.291c.222-.135.443-.276.655-.424-.045.3-.09.605-.138.928A2.079,2.079,0,0,0,141.994,86.3Zm-1.432.464c-.254-3.342-.07-4.823-1.7-5.531-1.326-.576-2.122.882-2.122.882s-.647,1.714-.906,2.474c-.968-1.336-1.82-2.7-2.686-4.118-.143-1.866-.274-2.994-.292-3.153.053-.034.3-.138.358-.169a21.991,21.991,0,0,0,2.158,3.044,6.2,6.2,0,0,0,1.424-1.252c.047,1.666,3.676,2.1,4.517.761a6.964,6.964,0,0,0,.278.923,4.4,4.4,0,0,0,2.647-.917,20.321,20.321,0,0,0-1.522,5.783C142.018,85.96,141.288,86.352,140.562,86.763Zm-3.1-15.235c.48-.573-4.15-.655-4.275-3.8a19.213,19.213,0,0,1,1.055-6.617c.643-2.271,1.239-3.772,3.949-3.821,2.265-.045,6.549,2.058,6.762,2.532a18.8,18.8,0,0,1-.194,3.7c1.481-2.113,4.693,1.1,2.05,3.265H146.8c-.169.074-1.271.9-1.88.389-.1-.1-.044.263.9.207a1.384,1.384,0,0,0,.2-.029c-.266,1.541-1.82,6.53-2.02,7.694-3.629,1.808-3.3,1.4-3.151,2.436a3.472,3.472,0,0,0-3.042-.265,3.579,3.579,0,0,0,.366-.921c-.453-.369-1.043-.934-1.6-1.481C136.782,73.714,137.189,72.62,137.465,71.528Zm-2.435,1.806a18.811,18.811,0,0,0,3.06,3.092c-.419.581-2.146,3-2.641,3.612a22.906,22.906,0,0,1-2.567-4.055C133.277,75.533,134.768,73.8,135.03,73.334Zm-21.663,26.32c-9.136,1.7-13.052-3.445-13.06-3.466a22.571,22.571,0,0,1-.886-4.736c-.247-1.7-.454-3.419-.785-5.105v0a49.346,49.346,0,0,1,5.839-.074,5.637,5.637,0,0,0,2.517,4.155,7.231,7.231,0,0,0,6.02.677c2.652-.7,6.441-2.188,7.907-4.747,1.016-1.348,2.087-3.19,2.087-3.19,2.125-3.356,7.43-10.579,11.011-8.916-.09.117-1.334,1.7-1.313,1.732a7.435,7.435,0,0,0,.382.92.822.822,0,0,0-.512.286C121.622,94.719,117.851,98.816,113.367,99.654ZM140.1,180.185c.291.648-.165,1.072-.6,1.578-.572.665-5.87,6.134-6.762,5.943l0-.008c.329-.981.65-1.976.9-2.981a6.856,6.856,0,0,0,1.387.353c.267.021.112-.417-1.321-.618q.132-.552.229-1.108c.174.042,1,.464,1.272.519a.158.158,0,0,0,.178-.23,3.226,3.226,0,0,0-1.4-.594c.026-.167.047-.334.069-.5a7.593,7.593,0,0,0,1.315.382.092.092,0,0,0,.064-.154,4.12,4.12,0,0,0-1.35-.491c.034-.332.056-.666.064-1a2.919,2.919,0,0,0,2.895-.382,3.69,3.69,0,0,0,.965-3.021A11.994,11.994,0,0,1,140.1,180.185Zm-2.347-2.373c-.162,2.409-.863,3.921-3.474,3.317,0-.01-1.666-1.784-1.995-2.132,1.464-1.156,2.862-2.439,4.241-3.675A15.316,15.316,0,0,0,137.751,177.812Zm43.66,8.162c.416.615.008,1.043-.374,1.65-.416.661-5.085,7.181-5.813,6.908.178-1.022.344-1.886.464-3.129a6.919,6.919,0,0,0,1.411.145c.088,0,.135-.129.048-.174a3.007,3.007,0,0,0-1.435-.242c.032-.377.053-.755.061-1.132.207.019,1.095.307,1.355.329.412.03.087-.764-1.352-.637,0-.169,0-.336-.006-.506a7.753,7.753,0,0,0,1.347.183.091.091,0,0,0,.046-.167,4.226,4.226,0,0,0-1.4-.282c-.016-.353-.047-.708-.092-1.06,2.688.635,3.886-1.555,3.325-3.875A12.027,12.027,0,0,1,181.411,185.974Zm-2.681-2a4.053,4.053,0,0,1-.409,2.882,2.654,2.654,0,0,1-2.572.9c0-.013-1.668-2.087-2.053-2.429,1.075-1.291,2.069-2.647,3.026-4.039C177.027,181.787,178.385,183.574,178.73,183.975ZM162,154.857c3.138,6.5,15.165,25.252,15.18,25.262,0,0-3.843,5.338-6.11,7.7-13.357-9.359-24.689-21.732-31.09-36.877a79.18,79.18,0,0,1-4.087-13.19c-.016-.066-.109-.037-.1.026a56.273,56.273,0,0,0,2.132,8.812c-.024,0-5.643,6.575-7.009,7.6-.135.1,5.391,16.688,6.434,19.953-2.525,2.177-5.378,4.176-7.694,6.568-5.706-4.622-9.639-11.108-13.155-17.462-3.713-6.708-6.025-14.153-3.21-21.5a8.65,8.65,0,0,0,2.854,2.239s8.317-3.3,13.885-23.458c3.026,3.074,8.415,2.822,12.21,1.087,3.079,20.764,14.213,29.667,14.213,29.667A43.606,43.606,0,0,0,162,154.857ZM181.57,42.39c1.748.246,1.085,2.352.543,3.32-.206.369-1.532,1.631-1.527.44A5.1,5.1,0,0,0,181.57,42.39Zm-1.336-.255c1-.54,1.059-.074,1.147.6a4.145,4.145,0,0,1-.615,2.48,3.5,3.5,0,0,1-.615.907c-.807-.114-.569-.487-.591-.65.034-.066.067-.133.092-.194A9.449,9.449,0,0,0,180.234,42.135Zm-1-.589c1.19-.577.618,2.827.072,3.838a.125.125,0,0,0-.04.071v.006c-.128.219-.457.691-.71.7-.087-.08-.173-.162-.261-.241-.374-.977.136-2.935.465-3.935C178.922,41.989,178.9,41.716,179.236,41.546Zm-14.754-4.821a4.893,4.893,0,0,1,1.691-2.954c.918-.758,2.032-.451,2.056.836a4.244,4.244,0,0,1-.364,1.545c-1.818,4.644-5.373,3.182-5.428-.039-.055-3.42,4.3-5.872,5.5-5.124a9.729,9.729,0,0,1,1.652,1.981c1.088,1.285,8.39,9.342,9.039,8.964a6.354,6.354,0,0,0-.661,3.719,28.574,28.574,0,0,0-12.7-6.345c2.147-.4,3.984-4.389,2.851-5.773-1.411-1.721-3.9,1.864-3.779,3.19A.071.071,0,0,0,164.482,36.725ZM185.75,58.494c.188.324-.817,2.854-1.738,2.549-11.373-6.186-13.711-6.95-14.434-8.125-.363-.586,1.523-4.077,1.575-4.084C171.461,48.8,185.492,58.044,185.75,58.494Zm-6.681-5.4c-1.281-.817-2.59-1.591-3.9-2.339a30.683,30.683,0,0,0,1.474-3.633,6.034,6.034,0,0,1-1.267-3.194,20.129,20.129,0,0,1,2.709,2.226c.1.265.242.368.4.368q1.444,1.35,2.823,2.778C180.841,50.165,179.345,52.528,179.069,53.1Zm14.286.82c-.362,2.443-4.153,3-4.962,2.479-.5-.32-6.122-6.76-9.586-9.991a1.923,1.923,0,0,0,.429-.42c.061.72.606.789,1.085.424-.055,1.268,2,.616,2.551-1.763,2.823,2.105,5.572,4.2,8.531,6.112C192.668,51.573,193.628,52.066,193.355,53.915Z"/><path d="M128.875,26.3c1.371,1.393,4.2,4.333,6.442,3.262,6.35-2.858,6.655-7.421,2.259-12.678-2.029-2.429-5.567-5.657-10.165-4.065a7.2,7.2,0,0,0-3.015,3c-1.045,1.5.043,3.808.748,5.262A19.833,19.833,0,0,0,128.875,26.3Zm-4.381-10.087c.873-.459,3.331-1.1,6.9,3.235,4.5,5.479,3.8,9.7,3.256,10.109-2,.1-4.094-2.026-5.343-3.257a20.393,20.393,0,0,1-3.172-3.99C125.125,20.628,123.752,18.17,124.494,16.208Z"/><path d="M135.584,13.97c4.508,3.58,6.216,8.695,6.15,11.482h.53s-.763-5.335,2.517-8.186L138.655,6.051s-14.957,0-14.514.838,3.191,5.118,3.191,5.118S131.076,10.39,135.584,13.97Z"/><path d="M142.731,25.452s9.069,3.954,7.987,2.1-5.781-10.008-5.781-10.008A9.061,9.061,0,0,0,142.731,25.452Z"/><path d="M146.025,32.241a.17.17,0,0,0,.283-.164,4.308,4.308,0,0,0-2.336-2.066,13.973,13.973,0,0,1-1.3-4.383.148.148,0,0,0-.295,0c-.15,1.5.616,2.972,1.159,4.343a.745.745,0,0,0-.4.915c-.955,2.986.3,4.652.233,3.98a12.97,12.97,0,0,1-.079-3.553.931.931,0,0,0,.087.119c-.213,3.189,1.593,4.912,1.334,4.19a15.354,15.354,0,0,1-1.026-3.813,2.2,2.2,0,0,0,.289.177c.533,2.8,2.009,3.983,1.726,3.358a32.156,32.156,0,0,1-1.4-3.336.557.557,0,0,0,.31-.234c1.4,3.123,1.706,2.506,1.639,2.339a22.487,22.487,0,0,0-1.458-2.848,2.186,2.186,0,0,0-.043-.491C144.943,30.936,145.759,31.952,146.025,32.241Z"/><path d="M41.152,30.162c.856.159,1.7.382,2.543.589a.883.883,0,0,0,1.055.2c1.027,1.01.976,2.755,1.9,3.9,2.813,3.469,6.826-.8,3.1-3.782l6.919-1.039a12.868,12.868,0,0,1-2.01-2.254c-.244-.618.485-1.414,1.347-2.718s10.433-6.033,12.289-6.8,2.638,1.679,2.638,1.679,2.241-2.918,2.949-4.2-1.191-1.194-1.191-1.194-11.137.22-13.3-.4a2.832,2.832,0,0,0-3.227,1.193L49,30.138c-.3.631,2.119,2.687,1.742,4.057-.477,1.728-3.292,2.137-4.452-.967a5.773,5.773,0,0,0-1.329-2.5,6.785,6.785,0,0,0-3.2-3.593c-.13-.056-.238.124-.111.191a5.39,5.39,0,0,1,1.477,1.154,4.366,4.366,0,0,0-1.769-.632c-.127-.015-.154.2-.029.223a5.183,5.183,0,0,1,2.586,1.543.581.581,0,0,0-.255.154,9.612,9.612,0,0,0-2.448-1.1c-.138-.042-.188.165-.058.212a13.961,13.961,0,0,1,2.326,1.21.647.647,0,0,0,.021.365,15.2,15.2,0,0,0-2.289-.514C41.067,29.91,41,30.133,41.152,30.162Z"/><path d="M71.757,21.891c-.979-1.674-1.78-2.777-1.78-2.777s-.74-.936-2.713.091c-2.092,1.09-10.09,5.582-10.09,5.582s-2.121,2.439-1.578,3.02l3.448,4.044a21.74,21.74,0,0,0,8.011-3.892C69.421,26.179,72.735,23.564,71.757,21.891Z"/><path d="M100.914,14.909c.22-1.13-.5-2.053-.952-3.013a3.51,3.51,0,0,1,1.581-4.781c.113-.059.013-.218-.1-.17a3.653,3.653,0,0,0-2.172,4.007c.292,1.444,4.6,6.078-3.742,6.2a.1.1,0,0,0,0,.191C97.488,17.528,100.437,17.351,100.914,14.909Z"/><path d="M17.707,28.828c.975-.148,1.612.629,2.233,1.22A7,7,0,0,1,21.292,31.4c1.159,2.19-1.032,1.941-2.008,2.689a2.016,2.016,0,0,0-.355,2.88.115.115,0,0,0,.191-.112,2.027,2.027,0,0,1,1.146-2.784,7.154,7.154,0,0,0,1.206-.538,1.378,1.378,0,0,0,.6-1.7,8.85,8.85,0,0,0-2.607-2.668c-.573-.456-1.106-.816-1.816-.488C17.558,28.722,17.624,28.841,17.707,28.828Z"/><path d="M30.192,19.327a7.765,7.765,0,0,0,.864-4.835c-.013-.114-.188-.122-.183,0a10.58,10.58,0,0,1-.92,4.734C29.9,19.364,30.12,19.451,30.192,19.327Z"/><path d="M57.09,41.369a5.083,5.083,0,0,1,3.142,2.707.177.177,0,0,0,.323-.135c-.361-1.461-2.018-2.522-3.386-2.859A.149.149,0,0,0,57.09,41.369Z"/><path d="M160.6,9.454c.218-.037.138-.329-.045-.35a4.189,4.189,0,0,1-2.76-1.143,3.706,3.706,0,0,1-.945-2.854c.011-.122-.2-.151-.214-.029C156.287,7.34,158.119,9.876,160.6,9.454Z"/><path d="M183.567,90.624a3.554,3.554,0,0,1,.578-3.935c.074-.1-.051-.231-.138-.138A3.818,3.818,0,0,0,183,90.494c.856,2.1,3.8,2.289,4.071,4.787.018.178.312.26.344.048C187.8,92.82,184.533,92.235,183.567,90.624Z"/><path d="M17.126,110.415a5.538,5.538,0,0,0-2.8-.191.123.123,0,0,0,.031.241,7.969,7.969,0,0,1,3.236.61,1.069,1.069,0,0,0,1.135-.095c1-.811,1.026-2.784.864-3.917-.039-.278-.464-.162-.424.117a5.218,5.218,0,0,1-.119,2.217A1.821,1.821,0,0,1,17.126,110.415Z"/><path d="M7.858,98.437A10.869,10.869,0,0,0,12.5,96.856a.157.157,0,0,0-.159-.27A19.4,19.4,0,0,1,7.77,98.119C7.558,98.153,7.651,98.466,7.858,98.437Z"/><path d="M35.79,66.283c.2,1.339,1.015,1.514,1.689,1.827,2.336,1.081.694,3.359,2.7,3.193,2.88-.27,3.177-.262,3.633-.483,1.4-.681.064-2.519.132-3.63.084-1.311.56-1.038-.556-2.514a2.975,2.975,0,0,1-.12-3.8,13.179,13.179,0,0,0,1.1-1.066c.507-.721.414-1.769,1.016-2.416a3.853,3.853,0,0,1,1.281-.734A3.243,3.243,0,0,0,48.58,54.57c-2.284-.621-1.071-.825-1.666-1.321a.769.769,0,0,0-.361-.148c-1.578-.292-1.834,1.388-2.468,1.325-.745-.075-.528-1.558-1.562-1.464-.87.078-.863,1.519-1.679,1.738-.217.058-.451.01-.666.074-.888.274-.484,1.66-1.169,2.18-.421.321-1.438.179-1.493,1.6-.034.83.27,1.583-.326,2.3-.467.559-1.369.668-1.39,1.543-.018.753.706,1.424.541,2.158C36.2,65.181,35.644,65.324,35.79,66.283Z"/><path d="M61.072,67.893c.364.3-.071.541-.246.734a.063.063,0,0,0,.045.106.6.6,0,0,0,.475-.74c-.075-.209-.955-.97-1.106-1.278-.024-.047-.1-.013-.085.035A3.8,3.8,0,0,0,61.072,67.893Z"/><path d="M61.189,65.28a2.664,2.664,0,0,0,.3.868.069.069,0,0,0,.127-.035,1.735,1.735,0,0,0-.244-.912C61.33,65.1,61.16,65.172,61.189,65.28Z"/><path d="M57.453,66.492a6.144,6.144,0,0,0,.307.891.108.108,0,0,0,.2-.052,2.02,2.02,0,0,0-.355-.9A.083.083,0,0,0,57.453,66.492Z"/><path d="M58.619,72.109a3.95,3.95,0,0,1-2.278-1.225c-.044-.048-.116.013-.087.069A2.6,2.6,0,0,0,58.6,72.274C58.686,72.268,58.715,72.125,58.619,72.109Z"/><path d="M56.443,66.045a1.124,1.124,0,0,1,1.145-.661c.061.008.08-.111.019-.138-.523-.231-1.085.313-1.21.78A.025.025,0,0,0,56.443,66.045Z"/><path d="M61.735,64.315c.032.019.051-.029.032-.05a.873.873,0,0,0-1.228-.024c-.032.032.009.072.043.056A1.135,1.135,0,0,1,61.735,64.315Z"/><path d="M135.369,60.34a.036.036,0,0,0,.043.056,1.851,1.851,0,0,1,.819-.157C136.571,60.226,135.908,59.73,135.369,60.34Z"/><path d="M142.63,61.637a.082.082,0,0,0,.141-.082.942.942,0,0,0-1.045-.52c-.053.021-.069.119,0,.122A1.189,1.189,0,0,1,142.63,61.637Z"/><path d="M138.271,62.39c-.119.26-.83,1.14-.973,1.368-.368.574.7.76.445.528-.1-.1-.31-.209-.329-.366-.027-.2.79-1.156.915-1.506C138.34,62.379,138.284,62.358,138.271,62.39Z"/><path d="M135.709,61.557c-.393,1.095-.076,1.274,0,1.058a6.228,6.228,0,0,0,.122-1.023A.062.062,0,0,0,135.709,61.557Z"/><path d="M141.235,63.936A3.863,3.863,0,0,0,141.7,62.8c.013-.093-.114-.17-.164-.069C141.348,63.105,140.919,64.212,141.235,63.936Z"/><path d="M141.039,66.97a7.142,7.142,0,0,1-.824,1.23c-.067.08.018.225.119.157a2.684,2.684,0,0,0,1.052-1.591c.146-.644-.612.92-3.121.654C138.238,67.418,139.024,67.894,141.039,66.97Z"/><circle cx="19.446" cy="116.384" r="1.164"/><path d="M26.211,49.576a.957.957,0,1,0-.957-.957A.959.959,0,0,0,26.211,49.576Z"/><path d="M87.007,28.439a.984.984,0,1,0-1.967,0A.984.984,0,0,0,87.007,28.439Z"/><path d="M101.749,23.553a1.119,1.119,0,1,0,0-2.238A1.119,1.119,0,0,0,101.749,23.553Z"/><path d="M180.345,101.47a1.026,1.026,0,1,0,2.052,0A1.026,1.026,0,0,0,180.345,101.47Z"/></svg>